<svg version="1.1" id="Layer_1" xmlns="http://www.w3.org/2000/svg" xmlns:xlink="http://www.w3.org/1999/xlink" x="0px" y="0px"
	 width="270px" height="285px" viewBox="0 0 270 285" enable-background="new 0 0 270 285" xml:space="preserve">
<g>
	<defs>
		<rect id="SVGID_1_" width="270" height="285"/>
	</defs>
	<polygon clip-path="url(#SVGID_2_)" fill="#B3B3B3" points="134.5,0.125 0.577,47.255 21.739,222.718 134.642,284.771 
		248.127,221.877 269.282,46.422 	"/>
	<polygon clip-path="url(#SVGID_2_)" fill="#B62F32" points="255.925,56.562 134.187,15.049 134.187,269.945 236.209,213.483 	"/>
	<polygon clip-path="url(#SVGID_2_)" fill="#E23236" points="15.605,57.311 33.739,214.233 134.186,269.946 134.186,15.043 	"/>
	<path clip-path="url(#SVGID_2_)" fill="#F2F2F2" d="M173.078,166.413h-74.21l-16.603,41.526l-30.881,0.57l82.803-184.206
		l85.69,184.206h-28.622L173.078,166.413z M162.404,141.83l-27.995-58.464l-24.646,58.464H162.404z"/>
	<polygon clip-path="url(#SVGID_2_)" fill="#B3B3B3" points="134.187,24.304 134.408,83.366 162.375,141.875 134.25,141.875 
		134.187,166.375 173.077,166.413 191.254,208.517 220.804,209.065 	"/>
</g>
</svg>
